<svg width="512" height="512" viewBox="0 0 512 512" fill="none" xmlns="http://www.w3.org/2000/svg">
<circle cx="321.536" cy="215.04" r="153.6" fill="#FFE600"/>
<path d="M327.66 262.336C330.564 291.673 13.1297 327.593 27.0701 262.336C41.0105 197.079 85.1552 187.921 105.485 191.498C102.871 174.325 115.287 157.868 121.821 151.786C205.464 95.1156 241.622 162.519 249.245 203.305C305.007 180.121 324.756 232.999 327.66 262.336Z" fill="#5EABF2"/>
<path d="M498.656 376.081C503.329 423.376 -7.37424 481.283 15.0537 376.081C37.4816 270.879 108.503 256.114 141.211 261.881C137.006 234.197 156.98 207.665 167.494 197.86C302.061 106.501 360.234 215.163 372.499 280.915C462.211 243.54 493.984 328.786 498.656 376.081Z" fill="#0085FF"/>
</svg>
