<svg width="64" height="64" viewBox="0 0 64 64" fill="none" xmlns="http://www.w3.org/2000/svg">
<circle cx="40.192" cy="26.88" r="19.2" fill="#FFE600"/>
<path d="M40.9575 32.792C41.3205 36.4592 1.6412 40.9492 3.38375 32.792C5.1263 24.6349 10.6444 23.4901 13.1856 23.9373C12.8589 21.7907 14.4108 19.7335 15.2277 18.9733C25.683 11.8894 30.2027 20.3149 31.1557 25.4131C38.1259 22.5152 40.5945 29.1249 40.9575 32.792Z" fill="#5EABF2"/>
<path d="M62.332 47.0101C62.9161 52.922 -0.921772 60.1604 1.88172 47.0101C4.68521 33.8599 13.5629 32.0142 17.6514 32.7352C17.1257 29.2746 19.6226 25.9582 20.9367 24.7326C37.7577 13.3126 45.0292 26.8954 46.5624 35.1143C57.7763 30.4425 61.748 41.0983 62.332 47.0101Z" fill="#0085FF"/>
</svg>
