<svg width="192" height="192" viewBox="0 0 192 192" fill="none" xmlns="http://www.w3.org/2000/svg">
<circle cx="120.576" cy="80.64" r="57.6" fill="#FFE600"/>
<path d="M122.872 98.3762C123.962 109.378 4.92352 122.847 10.1512 98.3762C15.3788 73.9048 31.9331 70.4702 39.5567 71.8119C38.5765 65.372 43.2324 59.2005 45.6829 56.9198C77.0488 35.6683 90.608 60.9447 93.4669 76.2393C114.378 67.5455 121.783 87.3748 122.872 98.3762Z" fill="#5EABF2"/>
<path d="M186.996 141.03C188.748 158.766 -2.76536 180.481 5.64512 141.03C14.0556 101.58 40.6888 96.0426 52.954 98.2055C51.3771 87.8237 58.8677 77.8745 62.8101 74.1976C113.273 39.9378 135.088 80.6862 139.687 105.343C173.329 91.3276 185.244 123.295 186.996 141.03Z" fill="#0085FF"/>
</svg>
