<svg width="16" height="16" viewBox="0 0 16 16" fill="none" xmlns="http://www.w3.org/2000/svg">
<circle cx="10.048" cy="6.72" r="4.8" fill="#FFE600"/>
<path d="M10.2394 8.19801C10.3301 9.11479 0.410304 10.2373 0.845941 8.19801C1.28158 6.15873 2.6611 5.87251 3.2964 5.98432C3.21472 5.44767 3.60271 4.93337 3.80692 4.74331C6.42074 2.97236 7.55068 5.07872 7.78892 6.35327C9.53147 5.62879 10.1486 7.28123 10.2394 8.19801Z" fill="#5EABF2"/>
<path d="M15.583 11.7525C15.729 13.2305 -0.230447 15.0401 0.470426 11.7525C1.1713 8.46496 3.39073 8.00355 4.41284 8.18379C4.28142 7.31864 4.90564 6.48954 5.23417 6.18313C9.43941 3.32814 11.2573 6.72385 11.6406 8.77858C14.4441 7.61063 15.437 10.2746 15.583 11.7525Z" fill="#0085FF"/>
</svg>
