<svg width="24" height="24" viewBox="0 0 24 24" fill="none" xmlns="http://www.w3.org/2000/svg">
<circle cx="15.072" cy="10.08" r="7.2" fill="#FFE600"/>
<path d="M15.3591 12.297C15.4952 13.6722 0.61544 15.3559 1.2689 12.297C1.92235 9.23809 3.99163 8.80877 4.94459 8.97648C4.82207 8.1715 5.40405 7.40006 5.71036 7.11496C9.6311 4.45854 11.326 7.61808 11.6834 9.5299C14.2972 8.44318 15.2229 10.9218 15.3591 12.297Z" fill="#5EABF2"/>
<path d="M23.3745 17.6288C23.5935 19.8457 -0.34567 22.5601 0.705639 17.6288C1.75695 12.6974 5.0861 12.0053 6.61926 12.2757C6.42214 10.978 7.35846 9.7343 7.85126 9.27469C14.1591 4.99221 16.886 10.0858 17.4609 13.1679C21.6661 11.4159 23.1555 15.4118 23.3745 17.6288Z" fill="#0085FF"/>
</svg>
