<svg width="250" height="250" viewBox="0 0 250 250" fill="none" xmlns="http://www.w3.org/2000/svg">
<circle cx="156" cy="115" r="50" fill="#FFE600"/>
<path d="M148.993 130.28C149.968 139.656 43.4729 151.136 48.1497 130.28C52.8265 109.423 67.6364 106.496 74.4567 107.64C73.5798 102.151 77.7451 96.8914 79.9373 94.9475C107.998 76.8355 120.129 98.3778 122.686 111.413C141.394 104.004 148.019 120.904 148.993 130.28Z" fill="#5EABF2"/>
<path d="M205.989 167.117C207.552 182.223 36.7386 200.719 44.24 167.117C51.7415 133.516 75.496 128.799 86.4355 130.642C85.029 121.799 91.71 113.325 95.2262 110.193C140.235 81.0128 159.692 115.72 163.794 136.721C193.8 124.783 204.427 152.011 205.989 167.117Z" fill="#0085FF"/>
</svg>
