<svg width="32" height="32" viewBox="0 0 32 32" fill="none" xmlns="http://www.w3.org/2000/svg">
<circle cx="20.096" cy="13.44" r="9.6" fill="#FFE600"/>
<path d="M20.4788 16.396C20.6603 18.2296 0.820607 20.4746 1.69188 16.396C2.56316 12.3175 5.3222 11.745 6.59281 11.9687C6.42944 10.8953 7.20542 9.86676 7.61383 9.48663C12.8415 5.94473 15.1014 10.1574 15.5778 12.7065C19.0629 11.2576 20.2972 14.5625 20.4788 16.396Z" fill="#5EABF2"/>
<path d="M31.166 23.5051C31.458 26.461 -0.460894 30.0802 0.940853 23.5051C2.3426 16.9299 6.78146 16.0071 8.82568 16.3676C8.56285 14.6373 9.81128 12.9791 10.4683 12.3663C18.8788 6.65629 22.5146 13.4477 23.2812 17.5572C28.8882 15.2213 30.874 20.5491 31.166 23.5051Z" fill="#0085FF"/>
</svg>
