<svg width="480" height="480" viewBox="0 0 480 480" fill="none" xmlns="http://www.w3.org/2000/svg">
<circle cx="301.44" cy="201.6" r="144" fill="#FFE600"/>
<path d="M307.181 245.94C309.904 273.444 12.3091 307.119 25.3782 245.94C38.4474 184.762 79.833 176.176 98.8921 179.53C96.4417 163.43 108.081 148.001 114.208 142.299C192.622 89.1709 226.52 152.362 233.668 190.598C285.944 168.864 304.459 218.437 307.181 245.94Z" fill="#5EABF2"/>
<path d="M467.49 352.576C471.871 396.915 -6.91334 451.203 14.1128 352.576C35.139 253.949 101.722 240.107 132.385 245.514C128.443 219.559 147.169 194.686 157.025 185.494C283.182 99.8444 337.719 201.716 349.218 263.357C433.323 228.319 463.11 308.237 467.49 352.576Z" fill="#0085FF"/>
</svg>
