<svg width="1500" height="1000" viewBox="0 0 1500 1000" fill="none" xmlns="http://www.w3.org/2000/svg">
<path d="M463 713C480.2 722.2 497.5 741.833 504 750.5V928.5H272V793.5V713C273.333 709.833 282.8 700.4 310 688C344 672.5 339.5 688 357 688C371 688 384.833 695.667 390 699.5C407 699.5 403.5 693 413.5 692C423.5 691 421 693 437.5 703.5C454 714 441.5 701.5 463 713Z" fill="#939393"/>
<path d="M263 669C253 663.8 227.5 659.833 216 658.5H210V892H465.5V848C453.5 852.5 413 807 410.5 809C408 811 384 747 374 741C364 735 355.5 721 348.5 715C341.5 709 334.5 711 333 708C331.5 705 312 692 307 689.5C303 687.5 294 684.333 290 683C265.5 663 275.5 675.5 263 669Z" fill="#7C7979"/>
<path d="M435.426 840.672L505 863H1V553C14.3304 555.25 42.1965 560.581 47.0174 563.905C53.0435 568.059 99.0609 574.809 112.209 577.405C122.727 579.482 145.078 586.233 154.939 589.348C179.482 591.841 188.174 598.695 189.452 601.811C210.27 618.946 208.078 620.504 219.583 634.005C228.786 644.806 241.313 654.429 246.426 657.891C261.765 673.677 267 689.5 262.861 686.97C270 705.5 274.146 699.848 282.035 711.894C291.896 726.953 289.301 718.03 294.635 733.704C299.5 748 316.548 754.128 319.835 761.224C319.835 782 341.117 786.211 345.5 794C367.413 806.982 377.904 814.709 384.478 820.42C389.737 824.99 420.635 835.825 435.426 840.672Z" fill="#474747"/>
<path d="M683.5 746.5C691.833 726.667 712.6 685.3 729 678.5C749.5 670 748 691 757.5 678.5C765.1 668.5 773.667 649.333 777 641C778.741 643.143 781.687 647.136 782.155 649.038C783.214 646.661 786.554 640.655 787.525 637.078C787.161 635.157 787.097 634.097 787.5 634.5C787.912 634.912 787.857 635.852 787.525 637.078C788.965 644.686 795.101 665.794 795.5 663C795.9 660.2 799.333 658.5 801 658C805.333 670.333 815.4 695.7 821 698.5V746.5H683.5Z" fill="#7C7C7C"/>
<path d="M861 650C884.6 644.4 937.167 652.333 960.5 657L974.5 657V888H442.5V865C443.333 839.167 445.8 787.8 449 789C452.2 790.2 455.667 777.167 457 770.5L460.5 735.5C471.3 745.5 477 731.333 478.5 723C479.667 721.167 482.8 717.5 486 717.5C490 717.5 484.5 658.5 496 675C505.2 688.2 517.5 661.167 522.5 646C541.5 656 553.5 642 555.5 646C557.1 649.2 572.167 639.333 579.5 634C584.833 630.5 596.5 623.6 600.5 624C605.5 624.5 603 635 616.5 646C627.3 654.8 634.667 652.333 637 650C647 665.2 655.167 670.333 658 671C661.5 667.667 670.4 657.6 678 644C685.6 630.4 687.5 638.333 687.5 644C693.5 644.5 699.5 621 699.5 634C701.5 646.5 703 665.5 708 669C712 671.8 720 681.833 723.5 686.5C724.167 691.5 727 702.1 733 704.5C740.5 707.5 742.5 736 742.5 724C742.5 712 748.5 710.5 752 709.5C754.8 708.7 759.833 716.167 762 720C762.833 716 765.2 707.5 768 705.5C770.8 703.5 785.5 725 792.5 736C794.9 730.4 797.5 725.667 798.5 724C798.5 706.4 808.167 700 813 699C814.2 693 822.833 690.167 827 689.5C836.2 689.5 843.167 679.5 845.5 674.5C857.9 664.9 858.333 658.833 857 657C861.8 655 861.667 651.5 861 650Z" fill="#313030"/>
<path d="M907.5 702.5C879.1 765.3 808.667 821 777 841C1240.2 830.2 1451.33 937.5 1499 992.5V625C1494.33 620.5 1484.7 610.3 1483.5 605.5C1482 599.5 1464.5 576 1460 576C1456.4 576 1440.83 557.333 1433.5 548L1415.5 528C1407.83 518.833 1392 500.1 1390 498.5C1388 496.9 1379.17 495.5 1375 495C1372.2 487.4 1367.17 483.167 1365 482C1360 483 1354.5 468.5 1352.5 469.5C1350.9 470.3 1340.5 461.833 1335.5 457.5C1332.17 452.667 1325.3 443.3 1324.5 444.5C1323.7 445.7 1318.17 446.333 1315.5 446.5C1316.33 444.167 1317.2 440.2 1314 443C1310.8 445.8 1304.67 445.167 1302 444.5C1297.2 431.3 1293.67 426.333 1292.5 425.5C1293.5 420.833 1294.5 411.4 1290.5 411C1286.5 410.6 1284.17 393.167 1283.5 384.5L1267.5 345.5C1266.17 334.833 1262.8 312.8 1260 310C1257.2 307.2 1252.17 307.5 1250 308C1243.67 304.333 1230.6 297 1229 297C1227 297 1227.5 300 1224.5 302.5C1222.1 304.5 1215.83 302.333 1213 301C1211 300.6 1201.17 312.167 1196.5 318C1196.5 323.2 1186.5 336.5 1181.5 342.5C1176.83 351.167 1166.6 369.3 1163 372.5C1159.4 375.7 1156.17 393.833 1155 402.5C1139.4 402.5 1132.17 412.833 1130.5 418C1128.9 404.8 1124.17 402.167 1122 402.5C1112.5 416 1106.5 434.5 1104.5 439C1102.9 442.6 1092.83 424.833 1088 415.5C1081.6 414.7 1069.67 426.5 1064.5 432.5C1040.5 443.3 1017.17 490 1008.5 512C1001.83 522 986.8 546.2 980 563C973.2 579.8 955.833 581.333 948 580C946.333 594.667 935.9 639.7 907.5 702.5Z" fill="#1A1A1A"/>
<path d="M451 948.5C765 790.9 1280.83 748.167 1499.5 746.5V999H451V948.5Z" fill="#1A1A1A"/>
<path d="M68 863.5V665.5C71.1667 671.833 79.6 684.5 88 684.5C96.4 684.5 85.1667 688.833 78.5 691C80.381 694.328 84.9504 700.018 89.7868 699.628C93.0895 698.241 94.8362 697.582 92 699C91.2618 699.369 90.5212 699.569 89.7868 699.628C86.5684 700.979 81.8725 703.019 78.5 704.5C83 707.333 93.4 712.9 99 712.5C106 712 84.5 727.5 81.5 722.5C78.5 717.5 79.5 729 103 732C123.396 734.604 97.0901 739.09 89.784 738.269C93.6554 741.746 103.227 752.091 112.5 749C124.5 745 103.945 759 88 759C78.5 759 88.5 770 112.5 773.5C136.5 777 93.5 791 88 784.5C82.5 778 97.5 803.5 117.5 796.5C137.5 789.5 96 821 92 819.5C88 818 111 838 126.5 825.5C123.167 831.833 112.1 844.9 94.5 846.5H81.5L68 863.5Z" fill="black" stroke="black"/>
<path d="M68 863V665C65.4558 671.333 58.6803 684 51.9316 684C45.1829 684 54.208 688.333 59.5641 690.5C58.0528 693.828 54.3818 699.518 50.4961 699.128C47.8426 697.742 46.4393 697.082 48.7179 698.5C49.3111 698.869 49.906 699.069 50.4961 699.128C53.0818 700.479 56.8546 702.519 59.5641 704C55.9487 706.833 47.5932 712.4 43.094 712C37.4701 711.5 54.7436 727 57.1538 722C59.5641 717 58.7607 728.5 39.8803 731.5C23.4942 734.104 44.6285 738.59 50.4983 737.769C47.388 741.246 39.698 751.591 32.2479 748.5C22.6068 744.5 39.1209 758.5 51.9316 758.5C59.5641 758.5 51.5299 769.5 32.2479 773C12.9658 776.5 47.5128 790.5 51.9316 784C56.3504 777.5 44.2991 803 28.2308 796C12.1624 789 45.5043 820.5 48.7179 819C51.9316 817.5 33.453 837.5 21 825C23.6781 831.333 32.5692 844.4 46.7094 846H57.1538L68 863Z" fill="black" stroke="black"/>
<path d="M141.758 878.5V713.417C144.37 718.697 151.324 729.258 158.251 729.258C165.178 729.258 155.915 732.871 150.417 734.678C151.968 737.452 155.736 742.196 159.725 741.871C162.448 740.715 163.889 740.165 161.55 741.348C160.941 741.655 160.33 741.822 159.725 741.871C157.071 742.997 153.198 744.699 150.417 745.933C154.128 748.296 162.704 752.937 167.322 752.603C173.095 752.187 155.365 765.11 152.891 760.941C150.417 756.772 151.242 766.36 170.621 768.862C187.44 771.032 165.747 774.773 159.722 774.089C162.915 776.988 170.808 785.613 178.455 783.035C188.351 779.7 171.4 791.373 158.251 791.373C150.417 791.373 158.664 800.544 178.455 803.462C198.246 806.38 162.787 818.053 158.251 812.634C153.716 807.214 166.085 828.475 182.578 822.639C199.071 816.802 164.848 843.066 161.55 841.815C158.251 840.564 177.218 857.239 190 846.818C187.251 852.098 178.125 862.992 163.611 864.326H152.891L141.758 878.5Z" fill="black" stroke="black"/>
<path d="M141.758 878.083V713C139.66 718.28 134.073 728.841 128.508 728.841C122.942 728.841 130.385 732.454 134.802 734.261C133.555 737.035 130.528 741.779 127.324 741.454C125.136 740.298 123.978 739.748 125.857 740.931C126.347 741.238 126.837 741.405 127.324 741.454C129.456 742.58 132.567 744.282 134.802 745.516C131.82 747.879 124.93 752.52 121.22 752.186C116.582 751.77 130.826 764.693 132.814 760.524C134.802 756.355 134.139 765.943 118.57 768.445C105.057 770.615 122.485 774.356 127.326 773.672C124.761 776.571 118.419 785.196 112.275 782.618C104.325 779.283 117.943 790.956 128.508 790.956C134.802 790.956 128.176 800.127 112.275 803.045C96.3747 805.963 124.864 817.636 128.508 812.217C132.152 806.797 122.214 828.058 108.963 822.222C95.7121 816.385 123.207 842.649 125.857 841.398C128.508 840.147 113.269 856.822 103 846.401C105.208 851.681 112.541 862.575 124.201 863.909H132.814L141.758 878.083Z" fill="black" stroke="black"/>
<path d="M214.024 867.5V613.641C217.866 621.761 228.098 638.002 238.289 638.002C248.481 638.002 234.852 643.557 226.763 646.335C229.045 650.602 234.589 657.897 240.457 657.397C244.464 655.62 246.583 654.774 243.142 656.592C242.247 657.065 241.348 657.321 240.457 657.397C236.552 659.129 230.855 661.746 226.763 663.644C232.223 667.277 244.841 674.414 251.635 673.901C260.128 673.26 234.043 693.133 230.403 686.722C226.763 680.311 227.976 695.056 256.488 698.902C281.233 702.24 249.318 707.993 240.454 706.94C245.151 711.398 256.764 724.661 268.014 720.698C282.573 715.57 257.635 733.519 238.289 733.519C226.763 733.519 238.896 747.622 268.014 752.11C297.133 756.597 244.962 774.547 238.289 766.213C231.616 757.879 249.815 790.573 274.081 781.598C298.346 772.624 247.995 813.01 243.142 811.087C238.289 809.164 266.194 834.806 285 818.78C280.956 826.9 267.529 843.653 246.175 845.704H230.403L214.024 867.5Z" fill="black" stroke="black"/>
<path d="M214.024 866.859V613C210.937 621.12 202.716 637.36 194.528 637.36C186.34 637.36 197.29 642.916 203.789 645.694C201.955 649.961 197.501 657.256 192.787 656.756C189.567 654.978 187.865 654.133 190.629 655.951C191.349 656.424 192.071 656.68 192.787 656.756C195.924 658.488 200.501 661.104 203.789 663.003C199.402 666.635 189.265 673.772 183.806 673.259C176.983 672.618 197.94 692.491 200.864 686.081C203.789 679.67 202.814 694.414 179.907 698.261C160.026 701.599 185.668 707.351 192.789 706.299C189.016 710.756 179.686 724.02 170.647 720.057C158.95 714.928 178.986 732.878 194.528 732.878C203.789 732.878 194.041 746.981 170.647 751.468C147.252 755.956 189.167 773.906 194.528 765.572C199.89 757.238 185.268 789.932 165.773 780.957C146.278 771.982 186.73 812.369 190.629 810.446C194.528 808.523 172.109 834.165 157 818.138C160.249 826.259 171.037 843.012 188.192 845.063H200.864L214.024 866.859Z" fill="black" stroke="black"/>
<path d="M1500 999C832 878 386 830.5 1 848V999H1500Z" fill="black"/>
</svg>
