<svg width="1697" height="421" viewBox="0 0 1697 421" fill="none" xmlns="http://www.w3.org/2000/svg">
<path d="M808.653 350.039C799.79 375.591 769.223 417.79 717.854 382.167C715.892 380.859 713.036 378.252 709.948 374.276C692.183 378.785 651.937 377.771 633.075 337.639C619.864 350.979 586.321 364.92 557.827 313.966C554.984 304.76 551.807 282.064 561.84 264.929C571.873 247.794 585.752 241.256 591.438 240.129C590.936 227.165 592.943 201.801 608.995 188.273C612.172 183.576 622.339 173.731 637.589 171.927C653.417 170.056 669.59 170.126 686.683 190.528C691.388 180.57 705.112 160.88 722.369 161.782C739.625 162.684 745.946 165.915 746.949 167.418C752.3 171.176 763.805 181.848 767.016 194.473C778.553 191.279 805.041 191.204 818.686 216.456C822.03 221.904 828.217 235.507 826.21 246.329C837.916 246.517 863.433 253.882 871.861 281.838C880.288 309.795 866.677 332.191 858.818 339.894C850.6 347.718 830.806 358.149 808.653 348.39V350.039Z" fill="#777575"/>
<path d="M709.948 374.276C713.036 378.252 715.892 380.859 717.854 382.167C769.223 417.79 799.79 375.591 808.653 350.039V348.39M709.948 374.276C704.613 367.406 698.584 356.445 695.279 341.021C696.865 347.973 702.019 364.356 709.948 374.276ZM709.948 374.276C692.183 378.785 651.937 377.771 633.075 337.639C619.864 350.979 586.321 364.92 557.827 313.966C554.984 304.76 551.807 282.064 561.84 264.929C571.873 247.794 585.752 241.256 591.438 240.129M591.438 240.129C592.943 244.638 595.952 254.332 595.952 257.038L591.438 240.129ZM591.438 240.129C590.936 227.165 592.943 201.801 608.995 188.273C612.172 183.576 622.339 173.731 637.589 171.927C653.417 170.056 669.59 170.126 686.683 190.528M686.683 190.528C690.177 194.699 693.71 199.719 697.286 205.746L686.683 190.528ZM686.683 190.528C691.388 180.57 705.112 160.88 722.369 161.782C739.625 162.684 745.946 165.915 746.949 167.418C752.3 171.176 763.805 181.848 767.016 194.473M767.016 194.473C762.425 196.074 751.78 201.615 744.188 211.383M767.016 194.473C778.553 191.279 805.041 191.204 818.686 216.456C822.03 221.904 828.217 235.507 826.21 246.329C837.916 246.517 863.433 253.882 871.861 281.838C880.288 309.795 866.677 332.191 858.818 339.894C850.601 347.718 830.806 358.149 808.653 348.39M744.188 211.383C743.761 211.933 743.343 212.497 742.936 213.074L744.188 211.383ZM798.118 342.241C797.116 341.505 796.113 340.724 795.108 339.894L798.118 342.241ZM798.118 342.241C801.664 344.843 805.187 346.863 808.653 348.39" stroke="#413F3F"/>
<path d="M1324 362.911C1310.99 388.463 1266.1 430.662 1190.67 395.039C1187.79 393.731 1183.59 391.124 1179.06 387.148C1152.97 391.657 1093.87 390.643 1066.17 350.511C1046.77 363.851 997.514 377.792 955.672 326.838C951.497 317.632 946.832 294.936 961.565 277.801C976.298 260.666 996.679 254.128 1005.03 253.001C1004.29 240.037 1007.24 214.673 1030.81 201.145C1035.48 196.448 1050.41 186.603 1072.8 184.8C1096.04 182.928 1119.79 182.998 1144.89 203.4C1151.8 193.442 1171.95 173.752 1197.3 174.654C1222.64 175.556 1231.92 178.787 1233.39 180.29C1241.25 184.048 1258.14 194.72 1262.86 207.345C1279.8 204.151 1318.7 204.076 1338.73 229.328C1343.65 234.776 1352.73 248.379 1349.78 259.201C1366.97 259.389 1404.44 266.754 1416.82 294.71C1429.2 322.667 1409.21 345.063 1397.67 352.766C1385.6 360.59 1356.53 371.021 1324 361.262V362.911Z" fill="#777575"/>
<path d="M1179.06 387.148C1183.59 391.124 1187.79 393.731 1190.67 395.039C1266.1 430.662 1310.99 388.463 1324 362.911V361.262M1179.06 387.148C1171.22 380.278 1162.37 369.317 1157.52 353.893C1159.84 360.845 1167.41 377.228 1179.06 387.148ZM1179.06 387.148C1152.97 391.657 1093.87 390.643 1066.17 350.511C1046.77 363.851 997.514 377.792 955.672 326.838C951.497 317.632 946.832 294.936 961.565 277.801C976.298 260.666 996.679 254.128 1005.03 253.001M1005.03 253.001C1007.24 257.51 1011.66 267.205 1011.66 269.91L1005.03 253.001ZM1005.03 253.001C1004.29 240.037 1007.24 214.673 1030.81 201.145C1035.48 196.448 1050.41 186.603 1072.8 184.8C1096.04 182.928 1119.79 182.998 1144.89 203.4M1144.89 203.4C1150.02 207.571 1155.21 212.591 1160.46 218.618L1144.89 203.4ZM1144.89 203.4C1151.8 193.442 1171.95 173.752 1197.3 174.654C1222.64 175.556 1231.92 178.787 1233.39 180.29C1241.25 184.048 1258.14 194.72 1262.86 207.345M1262.86 207.345C1256.12 208.946 1240.49 214.487 1229.34 224.255M1262.86 207.345C1279.8 204.151 1318.7 204.076 1338.73 229.328C1343.65 234.776 1352.73 248.379 1349.78 259.201C1366.97 259.389 1404.44 266.754 1416.82 294.71C1429.2 322.667 1409.21 345.063 1397.67 352.766C1385.6 360.59 1356.53 371.021 1324 361.262M1229.34 224.255C1228.71 224.805 1228.1 225.369 1227.5 225.946L1229.34 224.255ZM1308.53 355.113C1307.06 354.377 1305.59 353.596 1304.11 352.766L1308.53 355.113ZM1308.53 355.113C1313.74 357.715 1318.91 359.735 1324 361.262" stroke="#413F3F"/>
<path d="M254.653 350.039C245.79 375.591 215.223 417.79 163.854 382.167C161.892 380.859 159.036 378.252 155.948 374.276C138.183 378.785 97.9367 377.771 79.0746 337.639C65.8645 350.979 32.3207 364.92 3.82694 313.966C0.984247 304.76 -2.19288 282.064 7.84015 264.929C17.8732 247.794 31.7522 241.256 37.4376 240.129C36.9359 227.165 38.9425 201.801 54.9954 188.273C58.1725 183.576 68.3393 173.731 83.5895 171.927C99.4166 170.056 115.59 170.126 132.683 190.528C137.388 180.57 151.112 160.88 168.369 161.782C185.625 162.684 191.946 165.915 192.949 167.418C198.3 171.176 209.805 181.848 213.016 194.473C224.553 191.279 251.041 191.204 264.686 216.456C268.03 221.904 274.217 235.507 272.21 246.329C283.916 246.517 309.433 253.882 317.861 281.838C326.288 309.795 312.677 332.191 304.818 339.894C296.6 347.718 276.806 358.149 254.653 348.39V350.039Z" fill="#777575"/>
<path d="M155.948 374.276C159.036 378.252 161.892 380.859 163.854 382.167C215.223 417.79 245.79 375.591 254.653 350.039V348.39M155.948 374.276C150.613 367.406 144.584 356.445 141.279 341.021C142.865 347.973 148.019 364.356 155.948 374.276ZM155.948 374.276C138.183 378.785 97.9367 377.771 79.0746 337.639C65.8645 350.979 32.3207 364.92 3.82694 313.966C0.984247 304.76 -2.19288 282.064 7.84015 264.929C17.8732 247.794 31.7522 241.256 37.4376 240.129M37.4376 240.129C38.9425 244.638 41.9524 254.332 41.9524 257.038L37.4376 240.129ZM37.4376 240.129C36.9359 227.165 38.9425 201.801 54.9954 188.273C58.1725 183.576 68.3393 173.731 83.5895 171.927C99.4166 170.056 115.59 170.126 132.683 190.528M132.683 190.528C136.177 194.699 139.71 199.719 143.286 205.746L132.683 190.528ZM132.683 190.528C137.388 180.57 151.112 160.88 168.369 161.782C185.625 162.684 191.946 165.915 192.949 167.418C198.3 171.176 209.805 181.848 213.016 194.473M213.016 194.473C208.425 196.074 197.78 201.615 190.188 211.383M213.016 194.473C224.553 191.279 251.041 191.204 264.686 216.456C268.03 221.904 274.217 235.507 272.21 246.329C283.916 246.517 309.433 253.882 317.861 281.838C326.288 309.795 312.677 332.191 304.818 339.894C296.601 347.718 276.806 358.149 254.653 348.39M190.188 211.383C189.761 211.933 189.343 212.497 188.936 213.074L190.188 211.383ZM244.118 342.241C243.116 341.505 242.113 340.724 241.108 339.894L244.118 342.241ZM244.118 342.241C247.664 344.843 251.187 346.863 254.653 348.39" stroke="#413F3F"/>
<path d="M477.02 374.175C468.158 399.727 437.591 441.925 386.222 406.302C384.26 404.994 381.404 402.388 378.316 398.411C360.551 402.921 320.305 401.906 301.443 361.774C288.232 375.114 254.689 389.055 226.195 338.101C223.352 328.895 220.175 306.199 230.208 289.064C240.241 271.929 254.12 265.391 259.805 264.264C259.304 251.3 261.31 225.936 277.363 212.408C280.54 207.711 290.707 197.866 305.957 196.063C321.785 194.191 337.957 194.262 355.05 214.663C359.755 204.705 373.48 185.015 390.736 185.917C407.993 186.819 414.314 190.051 415.317 191.554C420.668 195.311 432.173 205.983 435.383 218.609C446.921 215.415 473.409 215.339 487.054 240.591C490.398 246.039 496.585 259.642 494.578 270.464C506.283 270.652 531.801 278.017 540.229 305.974C548.656 333.93 535.045 356.326 527.186 364.029C518.968 371.853 499.174 382.284 477.02 372.525V374.175Z" fill="#777575"/>
<path d="M378.316 398.411C381.404 402.388 384.26 404.994 386.222 406.302C437.591 441.925 468.158 399.727 477.02 374.175V372.525M378.316 398.411C372.981 391.541 366.952 380.58 363.647 365.156C365.233 372.108 370.387 388.491 378.316 398.411ZM378.316 398.411C360.551 402.921 320.305 401.906 301.443 361.774C288.232 375.114 254.689 389.055 226.195 338.101C223.352 328.895 220.175 306.199 230.208 289.064C240.241 271.929 254.12 265.391 259.805 264.264M259.805 264.264C261.31 268.773 264.32 278.468 264.32 281.173L259.805 264.264ZM259.805 264.264C259.304 251.3 261.31 225.936 277.363 212.408C280.54 207.711 290.707 197.866 305.957 196.063C321.785 194.191 337.957 194.262 355.05 214.663M355.05 214.663C358.545 218.834 362.078 223.854 365.654 229.881L355.05 214.663ZM355.05 214.663C359.755 204.705 373.48 185.015 390.736 185.917C407.993 186.819 414.314 190.051 415.317 191.554C420.668 195.311 432.173 205.983 435.383 218.609M435.383 218.609C430.793 220.209 420.148 225.75 412.556 235.518M435.383 218.609C446.921 215.415 473.409 215.339 487.054 240.591C490.398 246.039 496.585 259.642 494.578 270.464C506.283 270.652 531.801 278.017 540.229 305.974C548.656 333.93 535.045 356.326 527.186 364.029C518.968 371.853 499.174 382.284 477.02 372.525M412.556 235.518C412.129 236.068 411.711 236.632 411.304 237.209L412.556 235.518ZM466.486 366.376C465.484 365.641 464.48 364.859 463.476 364.029L466.486 366.376ZM466.486 366.376C470.032 368.978 473.555 370.999 477.02 372.525" stroke="#413F3F"/>
<path d="M770.001 362.911C756.987 388.463 712.1 430.662 636.666 395.039C633.785 393.731 629.592 391.124 625.057 387.148C598.969 391.657 539.869 390.643 512.17 350.511C492.772 363.851 443.514 377.792 401.672 326.838C397.497 317.632 392.832 294.936 407.565 277.801C422.298 260.666 442.679 254.128 451.028 253.001C450.291 240.037 453.238 214.673 476.811 201.145C481.476 196.448 496.406 186.603 518.8 184.8C542.042 182.928 565.791 182.998 590.892 203.4C597.801 193.442 617.955 173.752 643.296 174.654C668.637 175.556 677.919 178.787 679.392 180.29C687.25 184.048 704.144 194.72 708.858 207.345C725.802 204.151 764.697 204.076 784.734 229.328C789.645 234.776 798.731 248.379 795.784 259.201C812.973 259.389 850.444 266.754 862.82 294.71C875.196 322.667 855.208 345.063 843.667 352.766C831.6 360.59 802.533 371.021 770.001 361.262V362.911Z" fill="#777575"/>
<path d="M625.057 387.148C629.592 391.124 633.785 393.731 636.666 395.039C712.1 430.662 756.987 388.463 770.001 362.911V361.262M625.057 387.148C617.222 380.278 608.369 369.317 603.516 353.893C605.845 360.845 613.413 377.228 625.057 387.148ZM625.057 387.148C598.969 391.657 539.869 390.643 512.17 350.511C492.772 363.851 443.514 377.792 401.672 326.838C397.497 317.632 392.832 294.936 407.565 277.801C422.298 260.666 442.679 254.128 451.028 253.001M451.028 253.001C453.238 257.51 457.658 267.205 457.658 269.91L451.028 253.001ZM451.028 253.001C450.291 240.037 453.238 214.673 476.811 201.145C481.476 196.448 496.406 186.603 518.8 184.8C542.042 182.928 565.791 182.998 590.892 203.4M590.892 203.4C596.023 207.571 601.211 212.591 606.463 218.618L590.892 203.4ZM590.892 203.4C597.801 193.442 617.955 173.752 643.296 174.654C668.637 175.556 677.919 178.787 679.392 180.29C687.25 184.048 704.144 194.72 708.858 207.345M708.858 207.345C702.117 208.946 686.485 214.487 675.337 224.255M708.858 207.345C725.802 204.151 764.697 204.076 784.734 229.328C789.645 234.776 798.731 248.379 795.784 259.201C812.973 259.389 850.444 266.754 862.82 294.71C875.196 322.667 855.208 345.063 843.667 352.766C831.6 360.59 802.533 371.021 770.001 361.262M675.337 224.255C674.71 224.805 674.096 225.369 673.499 225.946L675.337 224.255ZM754.531 355.113C753.06 354.377 751.586 353.596 750.111 352.766L754.531 355.113ZM754.531 355.113C759.738 357.715 764.912 359.735 770.001 361.262" stroke="#413F3F"/>
<path d="M1561.6 310.64C1543.51 352.66 1481.14 422.056 1376.31 363.474C1372.31 361.322 1366.48 357.036 1360.18 350.497C1323.93 357.913 1241.81 356.244 1203.32 290.248C1176.36 312.185 1107.91 335.111 1049.77 251.317C1043.97 236.178 1037.48 198.854 1057.96 170.675C1078.43 142.497 1106.75 131.745 1118.35 129.891C1117.33 108.572 1121.42 66.8604 1154.18 44.6144C1160.66 36.8901 1181.41 20.6999 1212.53 17.7337C1244.83 14.6554 1277.83 14.7719 1312.71 48.3221C1322.31 31.9465 1350.31 -0.433819 1385.53 1.04925C1420.74 2.53232 1433.64 7.84671 1435.69 10.3185C1446.6 16.498 1470.08 34.0476 1476.63 54.8106C1500.18 49.5581 1554.22 49.4345 1582.07 90.9604C1588.89 99.9206 1601.52 122.29 1597.42 140.087C1621.31 140.396 1673.38 152.508 1690.58 198.483C1707.77 244.458 1680 281.288 1663.96 293.956C1647.19 306.823 1606.8 323.977 1561.6 307.927V310.64Z" fill="#777575"/>
<path d="M1360.18 350.497C1366.48 357.036 1372.31 361.322 1376.31 363.474C1481.14 422.056 1543.51 352.66 1561.6 310.64V307.928M1360.18 350.497C1349.29 339.199 1336.99 321.173 1330.25 295.809C1333.49 307.241 1344 334.184 1360.18 350.497ZM1360.18 350.497C1323.93 357.913 1241.81 356.244 1203.32 290.248C1176.36 312.185 1107.91 335.111 1049.77 251.317C1043.97 236.178 1037.48 198.854 1057.96 170.675C1078.43 142.497 1106.75 131.745 1118.35 129.891M1118.35 129.891C1121.42 137.306 1127.57 153.249 1127.57 157.698L1118.35 129.891ZM1118.35 129.891C1117.33 108.572 1121.42 66.8604 1154.18 44.6144C1160.66 36.8901 1181.41 20.6999 1212.53 17.7337C1244.83 14.6554 1277.83 14.7719 1312.71 48.3221M1312.71 48.3221C1319.84 55.1809 1327.05 63.437 1334.34 73.3488L1312.71 48.3221ZM1312.71 48.3221C1322.31 31.9465 1350.31 -0.433819 1385.53 1.04925C1420.74 2.53232 1433.64 7.84671 1435.69 10.3185C1446.6 16.498 1470.08 34.0476 1476.63 54.8106M1476.63 54.8106C1467.26 57.4431 1445.54 66.555 1430.05 82.6181M1476.63 54.8106C1500.18 49.5581 1554.22 49.4345 1582.07 90.9604C1588.89 99.9206 1601.52 122.29 1597.42 140.087C1621.31 140.396 1673.38 152.508 1690.58 198.483C1707.77 244.458 1680 281.288 1663.96 293.956C1647.19 306.823 1606.8 323.977 1561.6 307.928M1430.05 82.6181C1429.18 83.523 1428.33 84.4499 1427.5 85.3989L1430.05 82.6181ZM1540.1 297.815C1538.05 296.606 1536.01 295.32 1533.96 293.956L1540.1 297.815ZM1540.1 297.815C1547.33 302.094 1554.52 305.417 1561.6 307.928" stroke="#413F3F"/>
<path d="M463.473 252.04C451.157 283.8 408.682 336.252 337.3 291.974C334.574 290.348 330.605 287.108 326.315 282.166C301.628 287.77 245.702 286.509 219.492 236.626C201.135 253.207 154.523 270.536 114.928 207.201C110.978 195.758 106.563 167.546 120.505 146.248C134.447 124.95 153.733 116.823 161.633 115.421C160.936 99.3075 163.724 67.7802 186.031 50.9657C190.446 45.1273 204.574 32.89 225.765 30.6481C247.759 28.3214 270.232 28.4094 293.985 53.7681C300.523 41.3908 319.594 16.9163 343.573 18.0372C367.553 19.1582 376.337 23.175 377.731 25.0433C385.166 29.7141 401.153 42.9789 405.614 58.6724C421.647 54.7023 458.454 54.6089 477.414 85.996C482.062 92.7686 490.659 109.677 487.871 123.128C504.136 123.362 539.595 132.516 551.306 167.266C563.017 202.016 544.103 229.854 533.182 239.429C521.763 249.154 494.257 262.12 463.473 249.989V252.04Z" fill="#777575"/>
<path d="M326.315 282.166C330.605 287.108 334.574 290.348 337.3 291.974C408.682 336.252 451.157 283.8 463.473 252.04V249.989M326.315 282.166C318.9 273.625 310.523 260.001 305.931 240.83C308.134 249.471 315.296 269.835 326.315 282.166ZM326.315 282.166C301.628 287.77 245.702 286.509 219.492 236.626C201.135 253.207 154.523 270.536 114.928 207.201C110.978 195.758 106.563 167.546 120.505 146.248C134.447 124.95 153.733 116.823 161.633 115.421M161.633 115.421C163.724 121.026 167.907 133.077 167.907 136.44L161.633 115.421ZM161.633 115.421C160.936 99.3075 163.724 67.7802 186.031 50.9657C190.446 45.1273 204.574 32.89 225.765 30.6481C247.759 28.3214 270.232 28.4094 293.985 53.7681M293.985 53.7681C298.84 58.9523 303.75 65.1927 308.719 72.6845L293.985 53.7681ZM293.985 53.7681C300.523 41.3908 319.594 16.9163 343.573 18.0372C367.553 19.1582 376.337 23.175 377.731 25.0433C385.166 29.7141 401.153 42.9789 405.614 58.6724M405.614 58.6724C399.235 60.6622 384.443 67.5493 373.894 79.6906M405.614 58.6724C421.647 54.7023 458.454 54.6089 477.414 85.9961C482.062 92.7686 490.659 109.677 487.871 123.128C504.136 123.362 539.595 132.516 551.306 167.266C563.017 202.016 544.103 229.854 533.182 239.429C521.763 249.154 494.257 262.12 463.473 249.989M373.894 79.6906C373.3 80.3745 372.719 81.0751 372.154 81.7924L373.894 79.6906ZM448.834 242.346C447.442 241.432 446.047 240.46 444.651 239.429L448.834 242.346ZM448.834 242.346C453.761 245.58 458.657 248.092 463.473 249.989" stroke="#413F3F"/>
<path d="M772.473 282.04C760.157 313.8 717.682 366.252 646.3 321.974C643.574 320.348 639.605 317.108 635.315 312.166C610.628 317.77 554.702 316.509 528.492 266.626C510.135 283.207 463.523 300.536 423.928 237.201C419.978 225.758 415.563 197.546 429.505 176.248C443.447 154.95 462.733 146.823 470.633 145.421C469.936 129.307 472.724 97.7802 495.031 80.9657C499.446 75.1273 513.574 62.89 534.765 60.6481C556.759 58.3214 579.232 58.4094 602.985 83.7681C609.523 71.3908 628.594 46.9163 652.573 48.0372C676.553 49.1582 685.337 53.175 686.731 55.0433C694.166 59.7141 710.153 72.9789 714.614 88.6724C730.647 84.7023 767.454 84.6089 786.414 115.996C791.062 122.769 799.659 139.677 796.871 153.128C813.136 153.362 848.595 162.516 860.306 197.266C872.017 232.016 853.103 259.854 842.182 269.429C830.763 279.154 803.257 292.12 772.473 279.989V282.04Z" fill="#777575"/>
<path d="M635.315 312.166C639.605 317.108 643.574 320.348 646.3 321.974C717.682 366.252 760.157 313.8 772.473 282.04V279.989M635.315 312.166C627.9 303.625 619.523 290.001 614.931 270.83C617.134 279.471 624.296 299.835 635.315 312.166ZM635.315 312.166C610.628 317.77 554.702 316.509 528.492 266.626C510.135 283.207 463.523 300.536 423.928 237.201C419.978 225.758 415.563 197.546 429.505 176.248C443.447 154.95 462.733 146.823 470.633 145.421M470.633 145.421C472.724 151.026 476.907 163.077 476.907 166.44L470.633 145.421ZM470.633 145.421C469.936 129.307 472.724 97.7802 495.031 80.9657C499.446 75.1273 513.574 62.89 534.765 60.6481C556.759 58.3214 579.232 58.4094 602.985 83.7681M602.985 83.7681C607.84 88.9523 612.75 95.1927 617.719 102.684L602.985 83.7681ZM602.985 83.7681C609.523 71.3908 628.594 46.9163 652.573 48.0372C676.553 49.1582 685.337 53.175 686.731 55.0433C694.166 59.7141 710.153 72.9789 714.614 88.6724M714.614 88.6724C708.235 90.6622 693.443 97.5493 682.894 109.691M714.614 88.6724C730.647 84.7023 767.454 84.6089 786.414 115.996C791.062 122.769 799.659 139.677 796.871 153.128C813.136 153.362 848.595 162.516 860.306 197.266C872.017 232.016 853.103 259.854 842.182 269.429C830.763 279.154 803.257 292.12 772.473 279.989M682.894 109.691C682.3 110.375 681.719 111.075 681.154 111.792L682.894 109.691ZM757.834 272.346C756.442 271.432 755.047 270.46 753.651 269.429L757.834 272.346ZM757.834 272.346C762.761 275.58 767.657 278.092 772.473 279.989" stroke="#413F3F"/>
<path d="M1179.6 268.04C1161.51 299.8 1099.14 352.252 994.314 307.974C990.311 306.348 984.484 303.108 978.183 298.166C941.931 303.77 859.806 302.509 821.317 252.626C794.36 269.207 725.912 286.536 667.769 223.201C661.968 211.758 655.485 183.546 675.958 162.248C696.431 140.95 724.752 132.823 736.353 131.421C735.33 115.307 739.424 83.7802 772.181 66.9657C778.664 61.1273 799.41 48.89 830.529 46.6481C862.826 44.3214 895.828 44.4094 930.707 69.7681C940.308 57.3908 968.313 32.9163 1003.53 34.0372C1038.74 35.1582 1051.64 39.175 1053.69 41.0433C1064.6 45.7141 1088.08 58.9789 1094.63 74.6724C1118.18 70.7023 1172.22 70.6089 1200.07 101.996C1206.89 108.769 1219.52 125.677 1215.42 139.128C1239.31 139.362 1291.38 148.516 1308.58 183.266C1325.77 218.016 1298 245.854 1281.96 255.429C1265.19 265.154 1224.8 278.12 1179.6 265.989V268.04Z" fill="#777575"/>
<path d="M978.183 298.166C984.484 303.108 990.311 306.348 994.314 307.974C1099.14 352.252 1161.51 299.8 1179.6 268.04V265.989M978.183 298.166C967.295 289.625 954.993 276.001 948.249 256.83C951.485 265.471 962.002 285.835 978.183 298.166ZM978.183 298.166C941.931 303.77 859.806 302.509 821.317 252.626C794.36 269.207 725.912 286.536 667.769 223.201C661.968 211.758 655.485 183.546 675.958 162.248C696.431 140.95 724.752 132.823 736.353 131.421M736.353 131.421C739.424 137.026 745.566 149.077 745.566 152.44L736.353 131.421ZM736.353 131.421C735.33 115.307 739.424 83.7802 772.181 66.9657C778.664 61.1273 799.41 48.89 830.529 46.6481C862.826 44.3214 895.828 44.4094 930.707 69.7681M930.707 69.7681C937.838 74.9523 945.047 81.1927 952.344 88.6845L930.707 69.7681ZM930.707 69.7681C940.308 57.3908 968.313 32.9163 1003.53 34.0372C1038.74 35.1582 1051.64 39.175 1053.69 41.0433C1064.6 45.7141 1088.08 58.9789 1094.63 74.6724M1094.63 74.6724C1085.26 76.6622 1063.54 83.5493 1048.05 95.6906M1094.63 74.6724C1118.18 70.7023 1172.22 70.6089 1200.07 101.996C1206.89 108.769 1219.52 125.677 1215.42 139.128C1239.31 139.362 1291.38 148.516 1308.58 183.266C1325.77 218.016 1298 245.854 1281.96 255.429C1265.19 265.154 1224.8 278.12 1179.6 265.989M1048.05 95.6906C1047.18 96.3745 1046.33 97.0751 1045.5 97.7924L1048.05 95.6906ZM1158.1 258.346C1156.05 257.432 1154.01 256.46 1151.96 255.429L1158.1 258.346ZM1158.1 258.346C1165.33 261.58 1172.52 264.092 1179.6 265.989" stroke="#413F3F"/>
</svg>
