<svg width="1695" height="419" viewBox="0 0 1695 419" fill="none" xmlns="http://www.w3.org/2000/svg">
<path d="M807.653 349.039C798.79 374.591 768.223 416.79 716.854 381.167C714.892 379.859 712.036 377.252 708.948 373.276C691.183 377.785 650.937 376.771 632.075 336.639C618.864 349.979 585.321 363.92 556.827 312.966C553.984 303.76 550.807 281.064 560.84 263.929C570.873 246.794 584.752 240.256 590.438 239.129C589.936 226.165 591.943 200.801 607.995 187.273C611.172 182.576 621.339 172.731 636.589 170.927C652.417 169.056 668.59 169.126 685.683 189.528C690.388 179.57 704.112 159.88 721.369 160.782C738.625 161.684 744.946 164.915 745.949 166.418C751.3 170.176 762.805 180.848 766.016 193.473C777.553 190.279 804.041 190.204 817.686 215.456C821.03 220.904 827.217 234.507 825.21 245.329C836.916 245.517 862.433 252.882 870.861 280.838C879.288 308.795 865.677 331.191 857.818 338.894C849.6 346.718 829.806 357.149 807.653 347.39V349.039Z" fill="#555353"/>
<path d="M1323 361.911C1309.99 387.463 1265.1 429.662 1189.67 394.039C1186.79 392.731 1182.59 390.124 1178.06 386.148C1151.97 390.657 1092.87 389.643 1065.17 349.511C1045.77 362.851 996.514 376.792 954.672 325.838C950.497 316.632 945.832 293.936 960.565 276.801C975.298 259.666 995.679 253.128 1004.03 252.001C1003.29 239.037 1006.24 213.673 1029.81 200.145C1034.48 195.448 1049.41 185.603 1071.8 183.8C1095.04 181.928 1118.79 181.998 1143.89 202.4C1150.8 192.442 1170.95 172.752 1196.3 173.654C1221.64 174.556 1230.92 177.787 1232.39 179.29C1240.25 183.048 1257.14 193.72 1261.86 206.345C1278.8 203.151 1317.7 203.076 1337.73 228.328C1342.65 233.776 1351.73 247.379 1348.78 258.201C1365.97 258.389 1403.44 265.754 1415.82 293.71C1428.2 321.667 1408.21 344.063 1396.67 351.766C1384.6 359.59 1355.53 370.021 1323 360.262V361.911Z" fill="#555353"/>
<path d="M253.653 349.039C244.79 374.591 214.223 416.79 162.854 381.167C160.892 379.859 158.036 377.252 154.948 373.276C137.183 377.785 96.9367 376.771 78.0746 336.639C64.8645 349.979 31.3207 363.92 2.82694 312.966C-0.0157529 303.76 -3.19288 281.064 6.84015 263.929C16.8732 246.794 30.7522 240.256 36.4376 239.129C35.9359 226.165 37.9425 200.801 53.9954 187.273C57.1725 182.576 67.3393 172.731 82.5895 170.927C98.4166 169.056 114.59 169.126 131.683 189.528C136.388 179.57 150.112 159.88 167.369 160.782C184.625 161.684 190.946 164.915 191.949 166.418C197.3 170.176 208.805 180.848 212.016 193.473C223.553 190.279 250.041 190.204 263.686 215.456C267.03 220.904 273.217 234.507 271.21 245.329C282.916 245.517 308.433 252.882 316.861 280.838C325.288 308.795 311.677 331.191 303.818 338.894C295.6 346.718 275.806 357.149 253.653 347.39V349.039Z" fill="#555353"/>
<path d="M476.02 373.175C467.158 398.727 436.591 440.925 385.222 405.302C383.26 403.994 380.404 401.388 377.316 397.411C359.551 401.921 319.305 400.906 300.443 360.774C287.232 374.114 253.689 388.055 225.195 337.101C222.352 327.895 219.175 305.199 229.208 288.064C239.241 270.929 253.12 264.391 258.805 263.264C258.304 250.3 260.31 224.936 276.363 211.408C279.54 206.711 289.707 196.866 304.957 195.063C320.785 193.191 336.957 193.262 354.05 213.663C358.755 203.705 372.48 184.015 389.736 184.917C406.993 185.819 413.314 189.051 414.317 190.554C419.668 194.311 431.173 204.983 434.383 217.609C445.921 214.415 472.409 214.339 486.054 239.591C489.398 245.039 495.585 258.642 493.578 269.464C505.283 269.652 530.801 277.017 539.229 304.974C547.656 332.93 534.045 355.326 526.186 363.029C517.968 370.853 498.174 381.284 476.02 371.525V373.175Z" fill="#555353"/>
<path d="M769.001 361.911C755.987 387.463 711.1 429.662 635.666 394.039C632.785 392.731 628.592 390.124 624.057 386.148C597.969 390.657 538.869 389.643 511.17 349.511C491.772 362.851 442.514 376.792 400.672 325.838C396.497 316.632 391.832 293.936 406.565 276.801C421.298 259.666 441.679 253.128 450.028 252.001C449.291 239.037 452.238 213.673 475.811 200.145C480.476 195.448 495.406 185.603 517.8 183.8C541.042 181.928 564.791 181.998 589.892 202.4C596.801 192.442 616.955 172.752 642.296 173.654C667.637 174.556 676.919 177.787 678.392 179.29C686.25 183.048 703.144 193.72 707.858 206.345C724.802 203.151 763.697 203.076 783.734 228.328C788.645 233.776 797.731 247.379 794.784 258.201C811.973 258.389 849.444 265.754 861.82 293.71C874.196 321.667 854.208 344.063 842.667 351.766C830.6 359.59 801.533 370.021 769.001 360.262V361.911Z" fill="#555353"/>
<path d="M1560.6 309.64C1542.51 351.66 1480.14 421.056 1375.31 362.474C1371.31 360.322 1365.48 356.036 1359.18 349.497C1322.93 356.913 1240.81 355.244 1202.32 289.248C1175.36 311.185 1106.91 334.111 1048.77 250.317C1042.97 235.178 1036.48 197.854 1056.96 169.675C1077.43 141.497 1105.75 130.745 1117.35 128.891C1116.33 107.572 1120.42 65.8604 1153.18 43.6144C1159.66 35.8901 1180.41 19.6999 1211.53 16.7337C1243.83 13.6554 1276.83 13.7719 1311.71 47.3221C1321.31 30.9465 1349.31 -1.43382 1384.53 0.0492507C1419.74 1.53232 1432.64 6.84671 1434.69 9.31852C1445.6 15.498 1469.08 33.0476 1475.63 53.8106C1499.18 48.5581 1553.22 48.4345 1581.07 89.9604C1587.89 98.9206 1600.52 121.29 1596.42 139.087C1620.31 139.396 1672.38 151.508 1689.58 197.483C1706.77 243.458 1679 280.288 1662.96 292.956C1646.19 305.823 1605.8 322.977 1560.6 306.927V309.64Z" fill="#555353"/>
<path d="M462.473 251.04C450.157 282.8 407.682 335.252 336.3 290.974C333.574 289.348 329.605 286.108 325.315 281.166C300.628 286.77 244.702 285.509 218.492 235.626C200.135 252.207 153.523 269.536 113.928 206.201C109.978 194.758 105.563 166.546 119.505 145.248C133.447 123.95 152.733 115.823 160.633 114.421C159.936 98.3075 162.724 66.7802 185.031 49.9657C189.446 44.1273 203.574 31.89 224.765 29.6481C246.759 27.3214 269.232 27.4094 292.985 52.7681C299.523 40.3908 318.594 15.9163 342.573 17.0372C366.553 18.1582 375.337 22.175 376.731 24.0433C384.166 28.7141 400.153 41.9789 404.614 57.6724C420.647 53.7023 457.454 53.6089 476.414 84.996C481.062 91.7686 489.659 108.677 486.871 122.128C503.136 122.362 538.595 131.516 550.306 166.266C562.017 201.016 543.103 228.854 532.182 238.429C520.763 248.154 493.257 261.12 462.473 248.989V251.04Z" fill="#555353"/>
<path d="M771.473 281.04C759.157 312.8 716.682 365.252 645.3 320.974C642.574 319.348 638.605 316.108 634.315 311.166C609.628 316.77 553.702 315.509 527.492 265.626C509.135 282.207 462.523 299.536 422.928 236.201C418.978 224.758 414.563 196.546 428.505 175.248C442.447 153.95 461.733 145.823 469.633 144.421C468.936 128.307 471.724 96.7802 494.031 79.9657C498.446 74.1273 512.574 61.89 533.765 59.6481C555.759 57.3214 578.232 57.4094 601.985 82.7681C608.523 70.3908 627.594 45.9163 651.573 47.0372C675.553 48.1582 684.337 52.175 685.731 54.0433C693.166 58.7141 709.153 71.9789 713.614 87.6724C729.647 83.7023 766.454 83.6089 785.414 114.996C790.062 121.769 798.659 138.677 795.871 152.128C812.136 152.362 847.595 161.516 859.306 196.266C871.017 231.016 852.103 258.854 841.182 268.429C829.763 278.154 802.257 291.12 771.473 278.989V281.04Z" fill="#555353"/>
<path d="M1178.6 267.04C1160.51 298.8 1098.14 351.252 993.314 306.974C989.311 305.348 983.484 302.108 977.183 297.166C940.931 302.77 858.806 301.509 820.317 251.626C793.36 268.207 724.912 285.536 666.769 222.201C660.968 210.758 654.485 182.546 674.958 161.248C695.431 139.95 723.752 131.823 735.353 130.421C734.33 114.307 738.424 82.7802 771.181 65.9657C777.664 60.1273 798.41 47.89 829.529 45.6481C861.826 43.3214 894.828 43.4094 929.707 68.7681C939.308 56.3908 967.313 31.9163 1002.53 33.0372C1037.74 34.1582 1050.64 38.175 1052.69 40.0433C1063.6 44.7141 1087.08 57.9789 1093.63 73.6724C1117.18 69.7023 1171.22 69.6089 1199.07 100.996C1205.89 107.769 1218.52 124.677 1214.42 138.128C1238.31 138.362 1290.38 147.516 1307.58 182.266C1324.77 217.016 1297 244.854 1280.96 254.429C1264.19 264.154 1223.8 277.12 1178.6 264.989V267.04Z" fill="#555353"/>
</svg>
