<svg width="240" height="240" viewBox="0 0 240 240" fill="none" xmlns="http://www.w3.org/2000/svg">
<g filter="url(#filter0_di_112_24)">
<circle cx="120" cy="120" r="100" fill="#D9D9D9"/>
</g>
<path d="M39.4412 89.731C34.823 97.044 38.192 99.438 46.0831 107.508C52.9754 114.557 42.6731 134.373 58.0107 128.624C73.3484 122.874 46.9744 82.7573 60.7118 76.6149C72.5633 51.994 44.0595 82.4179 39.4412 89.731Z" fill="#A5A1A1"/>
<path d="M90.8672 70.0986C90.8672 73.7286 84.8763 77 80.9733 77C77.0702 77 76.733 73.7286 76.733 70.0986C73.9062 60.2395 79.8971 63.5258 83.8001 63.5258C87.7032 63.5258 94.7541 63.5258 90.8672 70.0986Z" fill="#A5A1A1"/>
<path d="M72.5044 79.5775C72.5044 82.4296 69.8834 85 68.1758 85C66.4682 85 66.3207 82.4296 66.3207 79.5775C65.084 71.831 67.705 74.4131 69.4125 74.4131C71.1201 74.4131 74.2049 74.4131 72.5044 79.5775Z" fill="#A5A1A1"/>
<path d="M68.4894 95.3334C69.5619 98.8014 68.3821 102.59 66.9838 103.023C65.5856 103.455 64.4982 100.367 63.4257 96.8994C59.5 87.7937 62.6172 90.2695 64.0155 89.8371C65.4138 89.4046 67.9399 88.6234 68.4894 95.3334Z" fill="#A5A1A1"/>
<path d="M46.8672 96.0986C46.8672 99.7286 40.8763 103 36.9733 103C33.0702 103 32.733 99.7286 32.733 96.0986C29.9062 86.2395 35.8971 89.5258 39.8001 89.5258C43.7032 89.5258 50.7541 89.5258 46.8672 96.0986Z" fill="#A5A1A1"/>
<path d="M40.897 122.375C38.1897 124.383 32.627 121.983 30.5925 119.24C28.5579 116.497 30.8219 114.45 33.5292 112.442C39.4086 105.001 40.0806 111.03 42.1151 113.773C44.1497 116.516 47.8252 121.471 40.897 122.375Z" fill="#A5A1A1"/>
<path d="M103.5 47.5002C82 44.0002 86.5 52.5 69.5 65C63.6348 69.3127 37.5 89.0229 37.5 83.5C37.5 77.9771 52 52.687 63.0001 47.5C127 17.3213 119 31.8471 103.5 47.5002Z" fill="#A5A1A1"/>
<path d="M152.877 46.4694C157.632 42.2558 164.724 39.8927 167.509 43.0349C189.824 43.067 165.456 47.6561 170.871 53.7675C203.139 90.1806 186.095 83.9544 160.63 60.4217C163.945 46.8183 150.294 48.7584 152.877 46.4694Z" fill="#A5A1A1"/>
<path d="M121.911 41.9893C103.898 35.212 131.748 29.6364 147 29.5C162.252 29.3636 166.066 37.9742 177.145 41.4951C177.175 44.827 195.134 45.5576 149.582 47.7751C135.731 43.0723 112.256 43.2823 121.911 41.9893Z" fill="#A5A1A1"/>
<defs>
<filter id="filter0_di_112_24" x="0" y="0" width="240" height="240" filterUnits="userSpaceOnUse" color-interpolation-filters="sRGB">
<feFlood flood-opacity="0" result="BackgroundImageFix"/>
<feColorMatrix in="SourceAlpha" type="matrix" values="0 0 0 0 0 0 0 0 0 0 0 0 0 0 0 0 0 0 127 0" result="hardAlpha"/>
<feOffset/>
<feGaussianBlur stdDeviation="10"/>
<feComposite in2="hardAlpha" operator="out"/>
<feColorMatrix type="matrix" values="0 0 0 0 1 0 0 0 0 1 0 0 0 0 1 0 0 0 1 0"/>
<feBlend mode="normal" in2="BackgroundImageFix" result="effect1_dropShadow_112_24"/>
<feBlend mode="normal" in="SourceGraphic" in2="effect1_dropShadow_112_24" result="shape"/>
<feColorMatrix in="SourceAlpha" type="matrix" values="0 0 0 0 0 0 0 0 0 0 0 0 0 0 0 0 0 0 127 0" result="hardAlpha"/>
<feOffset dx="-10" dy="-10"/>
<feGaussianBlur stdDeviation="2"/>
<feComposite in2="hardAlpha" operator="arithmetic" k2="-1" k3="1"/>
<feColorMatrix type="matrix" values="0 0 0 0 0 0 0 0 0 0 0 0 0 0 0 0 0 0 0.5 0"/>
<feBlend mode="normal" in2="shape" result="effect2_innerShadow_112_24"/>
</filter>
</defs>
</svg>
