<svg width="652" height="385" viewBox="0 0 652 385" fill="none" xmlns="http://www.w3.org/2000/svg">
<path d="M517.595 309.64C499.511 351.66 437.136 421.056 332.314 362.474C328.311 360.322 322.484 356.036 316.183 349.497C279.931 356.913 197.806 355.244 159.317 289.248C132.36 311.185 63.912 334.111 5.76856 250.317C-0.0321449 235.178 -6.51528 197.854 13.9578 169.675C34.4308 141.497 62.7519 130.745 74.3533 128.891C73.3296 107.572 77.4243 65.8604 110.181 43.6144C116.664 35.8901 137.41 19.6999 168.529 16.7337C200.826 13.6554 233.828 13.7719 268.707 47.3221C278.308 30.9465 306.313 -1.43382 341.527 0.0492507C376.74 1.53232 389.638 6.84671 391.686 9.31852C402.605 15.498 426.08 33.0476 432.632 53.8106C456.176 48.5581 510.225 48.4345 538.068 89.9604C544.892 98.9206 557.518 121.29 553.423 139.087C577.308 139.396 629.378 151.508 646.575 197.483C663.773 243.458 635.998 280.288 619.96 292.956C603.193 305.823 562.801 322.977 517.595 306.927V309.64Z" fill="#7E7E7E"/>
</svg>
