<svg width="654" height="387" viewBox="0 0 654 387" fill="none" xmlns="http://www.w3.org/2000/svg">
<path d="M518.595 310.64C500.511 352.66 438.136 422.056 333.314 363.474C329.311 361.322 323.484 357.036 317.183 350.497C280.931 357.913 198.806 356.244 160.317 290.248C133.36 312.185 64.912 335.111 6.76856 251.317C0.967855 236.178 -5.51528 198.854 14.9578 170.675C35.4308 142.497 63.7519 131.745 75.3533 129.891C74.3296 108.572 78.4243 66.8604 111.181 44.6144C117.664 36.8901 138.41 20.6999 169.529 17.7337C201.826 14.6554 234.828 14.7719 269.707 48.3221C279.308 31.9465 307.313 -0.433819 342.527 1.04925C377.74 2.53232 390.638 7.84671 392.686 10.3185C403.605 16.498 427.08 34.0476 433.632 54.8106C457.176 49.5581 511.225 49.4345 539.068 90.9604C545.892 99.9206 558.518 122.29 554.423 140.087C578.308 140.396 630.378 152.508 647.575 198.483C664.773 244.458 636.998 281.288 620.96 293.956C604.193 306.823 563.801 323.977 518.595 307.927V310.64Z" fill="#777575"/>
<path d="M317.183 350.497C323.484 357.036 329.311 361.322 333.314 363.474C438.136 422.056 500.511 352.66 518.595 310.64V307.928M317.183 350.497C306.295 339.199 293.993 321.173 287.249 295.809C290.485 307.241 301.002 334.184 317.183 350.497ZM317.183 350.497C280.931 357.913 198.806 356.244 160.317 290.248C133.36 312.185 64.912 335.111 6.76856 251.317C0.967855 236.178 -5.51528 198.854 14.9578 170.675C35.4308 142.497 63.7519 131.745 75.3533 129.891M75.3533 129.891C78.4243 137.306 84.5662 153.249 84.5662 157.698L75.3533 129.891ZM75.3533 129.891C74.3296 108.572 78.4243 66.8604 111.181 44.6144C117.664 36.8901 138.41 20.6999 169.529 17.7337C201.826 14.6554 234.828 14.7719 269.707 48.3221M269.707 48.3221C276.838 55.1809 284.047 63.437 291.344 73.3488L269.707 48.3221ZM269.707 48.3221C279.308 31.9465 307.313 -0.433819 342.527 1.04925C377.74 2.53232 390.638 7.84671 392.686 10.3185C403.605 16.498 427.08 34.0476 433.632 54.8106M433.632 54.8106C424.264 57.4431 402.542 66.555 387.052 82.6181M433.632 54.8106C457.176 49.5581 511.225 49.4345 539.068 90.9604C545.892 99.9206 558.518 122.29 554.423 140.087C578.308 140.396 630.378 152.508 647.575 198.483C664.773 244.458 636.998 281.288 620.96 293.956C604.193 306.823 563.801 323.977 518.595 307.928M387.052 82.6181C386.179 83.523 385.326 84.4499 384.497 85.3989L387.052 82.6181ZM497.098 297.815C495.054 296.606 493.006 295.32 490.956 293.956L497.098 297.815ZM497.098 297.815C504.334 302.094 511.523 305.417 518.595 307.928" stroke="#464242"/>
</svg>
